<?xml version="1.0" standalone="no"?><!DOCTYPE svg PUBLIC "-//W3C//DTD SVG 1.1//EN" "http://www.w3.org/Graphics/SVG/1.1/DTD/svg11.dtd"><svg width="200" height="200" viewBox="0 0 200 200" version="1.1" xmlns="http://www.w3.org/2000/svg" xmlns:xlink="http://www.w3.org/1999/xlink"><defs><style type="text/css"><![CDATA[
@font-face { font-family: ifont; src: url("//at.alicdn.com/t/font_1442373896_4754455.eot?#iefix") format("embedded-opentype"), url("//at.alicdn.com/t/font_1442373896_4754455.woff") format("woff"), url("//at.alicdn.com/t/font_1442373896_4754455.ttf") format("truetype"), url("//at.alicdn.com/t/font_1442373896_4754455.svg#ifont") format("svg"); }

]]></style></defs><g class="transform-group"><g transform="scale(0.1953125, 0.1953125)"><path d="M889.492 394.222c0-198.852-161.207-360.054-360.070-360.054-198.86 0-360.070 161.203-360.070 360.054 0 185.33 140.033 337.927 320.062 357.83v62.233h-120.024c-22.094 0-40.007 17.911-40.007 40.005s17.913 40.007 40.007 40.007h120.024v60.007c0 22.095 17.913 40.005 40.007 40.005 22.097 0 40.007-17.911 40.007-40.005v-60.007h120.024c22.097 0 40.007-17.912 40.007-40.007s-17.911-40.005-40.006-40.005h-120.025v-62.233c180.031-19.905 320.062-172.502 320.062-357.83zM249.369 394.222c0-154.661 125.384-280.042 280.054-280.042s280.053 125.382 280.053 280.042c0 154.663-125.384 280.042-280.054 280.042s-280.053-125.379-280.053-280.042z" fill="#f4ea29"></path></g></g></svg>