<?xml version="1.0" standalone="no"?><!DOCTYPE svg PUBLIC "-//W3C//DTD SVG 1.1//EN" "http://www.w3.org/Graphics/SVG/1.1/DTD/svg11.dtd"><svg width="200" height="200" viewBox="0 0 200 200" version="1.1" xmlns="http://www.w3.org/2000/svg" xmlns:xlink="http://www.w3.org/1999/xlink"><defs><style type="text/css"><![CDATA[
@font-face { font-family: ifont; src: url("//at.alicdn.com/t/font_1442373896_4754455.eot?#iefix") format("embedded-opentype"), url("//at.alicdn.com/t/font_1442373896_4754455.woff") format("woff"), url("//at.alicdn.com/t/font_1442373896_4754455.ttf") format("truetype"), url("//at.alicdn.com/t/font_1442373896_4754455.svg#ifont") format("svg"); }

]]></style></defs><g class="transform-group"><g transform="scale(0.1953125, 0.1953125)"><path d="M516.764514 64.440661c123.183554 1.904373 232.915747 48.225351 320.724629 142.025691 85.552491 91.391477 125.320217 201.340611 119.591749 326.305741-5.358031 116.906593-50.681286 217.507826-134.709051 298.855552-89.982384 87.110987-199.179388 129.640616-324.411601 126.018112-124.635625-3.605108-230.726895-52.02898-315.41367-143.56986C100.220562 725.087143 60.789505 618.440218 64.433498 497.43426c3.619434-120.219035 49.366338-223.605707 135.799896-307.250756C286.534945 106.666368 391.143445 65.708538 516.764514 64.440661zM508.904499 121.021308c-99.847056 1.586125-189.156104 35.706223-263.550465 105.325837-80.252789 75.102489-122.503055 168.779008-124.399241 278.55725-1.853208 107.302865 35.795251 200.896496 110.6194 277.860379 74.534554 76.667124 166.711929 116.785843 273.615705 118.414947 103.954607 1.584078 195.387016-33.902134 271.391037-105.034195 77.779458-72.794933 120.064516-163.430186 124.031874-270.00855 4.202719-112.88193-34.729989-210.682373-114.301256-290.418392C710.868303 160.119791 618.074897 122.561383 508.904499 121.021308zM740.163513 655.736659 570.611909 486.23315 570.611909 320.600809c14.250562 4.749164 31.871895 10.200316 58.641585 15.243169 66.821895 12.632715 87.962378-27.875884 87.962378-27.875884-34.715663-1.49505-58.641585-27.847232-58.641585-27.847232-39.671535-24.329105-86.349647-29.195949-116.227118-29.40061-0.352017 0-0.675382-0.205685-1.056052-0.205685s-0.674359 0.205685-1.056052 0.205685c-17.152658 0.029676-28.264741 1.553379-28.264741 1.553379l0 27.553543 0 28.139897 0 119.639844-129.811508-129.775692-40.067554 40.056298 169.879062 169.83199 0 95.452979c-18.911722-4.425799-40.696888-4.397147-62.951751 1.583055-54.741765 14.655791-90.630137 58.243519-80.162738 97.347119 10.467399 39.102576 63.362096 58.888202 118.103862 44.23241 43.395346-11.637038 74.53353-41.447994 80.514755-72.782653 1.876744-3.869121 3.137457-8.060583 3.137457-12.663414l0-94.544283 129.483027 129.447211L740.163513 655.736659z" fill="#ffffff"></path></g></g></svg>